<svg viewBox="0 0 292 400" xmlns="http://www.w3.org/2000/svg">
<g filter="url(#filter0_d)">
<g clip-path="url(#clip0)">
<path d="M146.736 56.3781C146.349 56.9981 145.652 57.3081 145.033 57.1531C144.259 56.9981 143.563 56.8431 142.712 56.8431C141.938 56.8431 141.164 56.9206 140.39 57.1531C139.693 57.3081 138.997 56.9981 138.687 56.3781L130.562 42.2733C130.252 41.7308 130.33 40.9558 130.794 40.4908C131.877 39.4058 132.651 38.0883 133.116 36.5384C133.348 35.8409 133.89 35.3759 134.586 35.3759H150.914C151.611 35.3759 152.153 35.8409 152.385 36.5384C152.849 38.0108 153.623 39.3283 154.706 40.4908C155.171 40.9558 155.326 41.6533 154.939 42.2733L146.813 56.3781H146.736ZM163.296 24.1385C158.189 23.2861 153.623 26.4635 152.307 31.0359C152.153 31.6559 151.611 32.1209 150.914 32.1209H134.509C133.812 32.1209 133.27 31.6559 133.116 31.0359C131.8 26.4635 127.234 23.2861 122.127 24.1385C118.257 24.7585 115.007 27.781 114.233 31.6559C112.918 38.0108 117.716 43.5908 123.752 43.5908C124.526 43.5908 125.3 43.5133 126.074 43.2808C126.77 43.1258 127.466 43.4358 127.776 44.0558L135.824 58.0831C136.134 58.6255 136.134 59.4005 135.669 59.8655C133.58 62.0355 132.419 65.213 133.116 68.6229C133.89 72.4204 136.83 75.4428 140.622 76.2178C146.968 77.5353 152.462 72.7304 152.462 66.6079C152.462 63.973 151.379 61.5705 149.676 59.8655C149.212 59.4005 149.135 58.6255 149.522 58.0831L157.57 44.0558C157.957 43.4358 158.653 43.1258 159.272 43.2808C160.046 43.4358 160.743 43.5908 161.594 43.5908C167.707 43.5908 172.505 38.0108 171.112 31.6559C170.338 27.781 167.088 24.7585 163.219 24.1385H163.296Z" fill="white"/>
<path d="M120.966 153.345L133.967 127.228C134.199 126.763 134.199 126.298 133.967 125.833L128.705 115.294C124.603 107.079 116.246 101.886 107.037 101.886H74.225V128.313H104.715C105.334 128.313 105.799 128.623 106.108 129.166L118.18 153.345C118.722 154.508 120.347 154.508 120.966 153.345Z" fill="white"/>
<path d="M215.222 288.504L168.945 195.737C168.404 194.575 166.779 194.575 166.159 195.737L153.159 221.855C152.926 222.32 152.926 222.785 153.159 223.25L191.852 300.748C195.798 308.653 196.031 318.108 191.774 325.936C187.054 334.538 178.309 339.73 168.636 339.73H143.64V366.158H168.636C186.667 366.158 203.15 357.168 212.901 342.055C223.27 326.091 223.812 305.631 215.3 288.581L215.222 288.504Z" fill="white"/>
<path d="M143.563 376H120.038C97.4411 376 76.0051 364.53 64.5519 345.078C53.7178 326.633 52.944 304.391 62.5399 285.172L149.599 110.799C155.403 99.1742 167.089 91.9668 180.09 91.9668H212.901V138.234H188.525C187.906 138.234 187.441 138.544 187.132 139.086L103.864 305.864C100.15 313.304 103.168 319.581 104.561 321.906C106.031 324.231 110.287 329.733 118.567 329.733H143.563V376Z" fill="white"/>
<path d="M54.027 199.07H51.3184V174.115H54.027C60.9143 174.115 66.4861 179.695 66.4861 186.593C66.4861 193.49 60.9143 199.07 54.027 199.07ZM45.3597 199.07C38.4723 199.07 32.9005 193.49 32.9005 186.593C32.9005 179.695 38.4723 174.115 45.3597 174.115H48.0682V199.07H45.3597ZM54.027 165.203H51.3184V146.991C51.3184 146.061 50.5446 145.363 49.6933 145.363C48.7647 145.363 48.0682 146.138 48.0682 146.991V165.203H45.3597C33.597 165.203 24.0011 174.813 24.0011 186.593C24.0011 198.372 33.597 207.982 45.3597 207.982H48.0682V226.194C48.0682 227.124 48.8421 227.822 49.6933 227.822C50.622 227.822 51.3184 227.047 51.3184 226.194V207.982H54.027C65.7897 207.982 75.3856 198.372 75.3856 186.593C75.3856 174.813 65.7897 165.203 54.027 165.203Z" fill="white"/>
<path d="M250.64 163C251.337 163 252.575 163 253.426 163C253.736 163 253.968 163.232 253.968 163.542C253.968 166.022 253.968 174.547 253.968 176.95C253.968 177.26 253.736 177.492 253.426 177.492H252.343C252.033 177.492 251.801 177.26 251.801 176.95V165.79C251.801 165.48 251.569 165.247 251.259 165.247H250.718C250.408 165.247 250.176 165.015 250.176 164.705V163.62C250.176 163.31 250.408 163.077 250.718 163.077L250.64 163Z" fill="white"/>
<path d="M264.801 172.61C264.801 169.045 259.384 169.045 259.384 172.61C259.384 176.252 264.801 176.252 264.801 172.61ZM266.039 169.587C267.974 172.067 267.277 176.562 263.253 177.415C261.783 177.725 260.158 177.415 258.997 176.407C257.836 175.477 257.14 174.082 257.14 172.532C257.14 170.982 257.604 170.44 260.932 163.31C261.009 163.077 261.241 163 261.473 163H262.634C263.021 163 263.331 163.465 263.176 163.852L261.783 166.797C261.628 167.185 261.86 167.572 262.325 167.572C263.795 167.65 265.188 168.347 266.039 169.51V169.587Z" fill="white"/>
<path d="M212.953 208.414C214.191 209.422 215.584 210.274 217.209 210.817C218.757 211.359 220.459 211.669 222.239 211.669H232.609C234.543 211.669 236.478 211.282 238.181 210.584C239.883 209.809 241.431 208.802 242.746 207.484C244.062 206.167 245.068 204.617 245.842 202.912C246.616 201.207 246.925 199.347 246.925 197.332C246.925 195.395 246.538 193.535 245.842 191.752C245.068 190.047 244.062 188.497 242.746 187.18C241.431 185.862 239.883 184.855 238.181 184.08C236.478 183.305 234.621 182.995 232.609 182.995H222.781C221.233 182.995 219.917 182.452 218.757 181.367C217.596 180.282 217.054 178.887 217.054 177.337C217.054 175.787 217.596 174.392 218.757 173.307C219.84 172.145 221.233 171.602 222.781 171.602H230.906C231.99 171.602 232.996 171.912 233.924 172.532C234.853 173.152 235.549 173.927 236.014 174.935L236.091 175.09C236.091 175.09 236.169 175.09 236.246 175.09H245.145C245.145 175.09 245.223 175.09 245.223 175.012C245.3 174.857 245.3 174.78 245.3 174.78C244.991 173.152 244.449 171.525 243.598 170.13C242.746 168.657 241.663 167.417 240.425 166.332C239.187 165.247 237.716 164.472 236.169 163.852C234.621 163.31 232.918 163 231.216 163H222.703C220.769 163 218.834 163.387 217.132 164.162C215.352 164.937 213.804 165.945 212.488 167.262C211.173 168.58 210.167 170.13 209.393 171.835C208.619 173.54 208.31 175.4 208.31 177.415C208.31 179.352 208.696 181.29 209.393 182.995C210.167 184.7 211.173 186.25 212.488 187.567C213.804 188.885 215.352 189.892 217.132 190.667C218.911 191.442 220.769 191.83 222.703 191.83H232.531C234.079 191.83 235.395 192.372 236.478 193.457C237.561 194.542 238.103 195.937 238.103 197.409C238.103 198.959 237.561 200.277 236.478 201.439C235.395 202.602 234.002 203.144 232.454 203.144H222.471C221.31 203.144 220.304 202.834 219.376 202.214C218.447 201.594 217.751 200.819 217.286 199.812L217.209 199.657H208.232C208.232 199.657 208.155 199.657 208.077 199.657C208 199.734 208 199.812 208 199.889C208.31 201.517 208.851 203.144 209.702 204.617C210.554 206.089 211.637 207.329 212.875 208.414H212.953Z" fill="white"/>
</g>
</g>
<defs>
<filter id="filter0_d" x="0" y="0" width="292" height="400" filterUnits="userSpaceOnUse" color-interpolation-filters="sRGB">
<feFlood flood-opacity="0" result="BackgroundImageFix"/>
<feColorMatrix in="SourceAlpha" type="matrix" values="0 0 0 0 0 0 0 0 0 0 0 0 0 0 0 0 0 0 127 0"/>
<feOffset/>
<feGaussianBlur stdDeviation="12"/>
<feColorMatrix type="matrix" values="0 0 0 0 0 0 0 0 0 0 0 0 0 0 0 0 0 0 0.2 0"/>
<feBlend mode="normal" in2="BackgroundImageFix" result="effect1_dropShadow"/>
<feBlend mode="normal" in="SourceGraphic" in2="effect1_dropShadow" result="shape"/>
</filter>
<clipPath id="clip0">
<rect x="24" y="24" width="244" height="352" fill="white"/>
</clipPath>
</defs>
</svg>
