<svg xmlns="http://www.w3.org/2000/svg" viewBox="0 0 1009.32 1009.32"><defs><style>.cls-1{fill:#202020;}.cls-2{fill:#5e2bff;}.cls-3{fill:#a30015;}.cls-4{fill:#f7f7ff;}</style></defs><title>Fichier 2</title><g id="Calque_2" data-name="Calque 2"><g id="Calque_1-2" data-name="Calque 1"><rect class="cls-1" width="1009.32" height="1009.32" rx="123.1"/><path class="cls-2" d="M870,504.89a361.68,361.68,0,0,1-6.2,66.92,351.79,351.79,0,0,1-9.31,38c-1.58,5.24-3.29,10.44-5.12,15.56-.22.68-.48,1.35-.71,2A361.06,361.06,0,0,1,295.84,796a361.54,361.54,0,0,1-126.7-169.38c-.27-.76-.56-1.54-.81-2.31q-2.54-7.15-4.74-14.45a350.63,350.63,0,0,1-9.51-39,362.35,362.35,0,0,1-6-66q0-6.7.26-13.35c7-193.09,166.07-347.47,360.88-347.47,195.37,0,354.49,155.27,360.62,349.15v0C869.94,497.12,870,501,870,504.89Z"/><path class="cls-1" d="M808.89,629.72a324.87,324.87,0,0,1-491.64,137A324.79,324.79,0,0,1,208.92,629c.23-.4.5-.86.72-1.27,1.64-2.9,3.31-5.75,5-8.56a343.15,343.15,0,0,1,592.67,7.93l.41.68C808.16,628.41,808.53,629,808.89,629.72Z"/><path class="cls-3" d="M870.9,592A416.79,416.79,0,0,0,530.76,381q-11-.6-22.08-.6-15,0-29.84,1.08a416.66,416.66,0,0,0-295,155.27A410,410,0,0,0,146.54,592c-.26.49-.54.95-.81,1.44a366.13,366.13,0,0,0,15.05,41.8q29.85,69.35,81.14,120.62T362.5,836.92q69.27,29.93,147,29.88a403.57,403.57,0,0,0,60.28-4.5A335,335,0,0,0,629,847.66q19.8,11.37,38.63,21.5a391.91,391.91,0,0,0,54.13-28.79q-17.16-8.72-35.28-18.64,95.81-54.11,148.78-141.42a361.76,361.76,0,0,0,37.66-84.67C872.26,594.41,871.58,593.19,870.9,592Zm-61.84,113.6a361.24,361.24,0,0,1-639.94-79q4.29-8.49,8.93-16.72c60.49-107.19,171.58-182,300.79-192.08q14.78-1.16,29.84-1.16,11.12,0,22.08.64c132.57,7.59,246.89,83.27,308.54,192.6,3.27,5.75,6.4,11.6,9.34,17.55A359.68,359.68,0,0,1,809.06,705.61Z"/><path class="cls-4" d="M839.31,609.87c-65-115.36-188.75-193.24-330.63-193.24S243.14,494.51,178.05,609.87q-4.62,8.22-8.93,16.73a361.12,361.12,0,0,0,679.52.81C845.7,621.47,842.57,615.63,839.31,609.87Zm-60.38,75.52a324.89,324.89,0,0,1-570-56.44c.23-.4.5-.86.72-1.27,1.64-2.9,3.31-5.75,5-8.56a343.15,343.15,0,0,1,592.67,7.93l.41.68c.4.68.77,1.31,1.13,2A322.82,322.82,0,0,1,778.93,685.39Z"/><path class="cls-1" d="M888,625.19l-5.25,14.55A398.39,398.39,0,0,1,743.84,825.23c-7.25,5.3-14.59,10.38-22.12,15.14q-17.13-8.72-35.26-18.63,95.81-54.13,148.77-141.43a361.58,361.58,0,0,0,37.66-84.67c2.91,5.16,5.67,10.42,8.25,15.68Z"/><path class="cls-1" d="M667.6,869.15A397.86,397.86,0,0,1,135,638.83l-5.26-14.64,7-13.87c3-6,5.93-11.56,9-16.9a366.13,366.13,0,0,0,15.05,41.79q29.85,69.35,81.14,120.62t120.57,81.09q69.28,29.93,147.05,29.87a405,405,0,0,0,60.29-4.48A335.45,335.45,0,0,0,629,847.66Q648.76,859,667.6,869.15Z"/><path class="cls-4" d="M508.68,380.37q-15,0-29.84,1.08V843.54h51.92V381Q519.76,380.37,508.68,380.37Z"/><path class="cls-4" d="M890.44,882.57c-6,3-10.93,5.26-14.64,6.75s-6.8,2.27-9,2.27q-27.06,0-74.38-18.86-32.64-13-70.67-32.36-17.13-8.72-35.26-18.63,95.81-54.13,148.77-141.43a361.58,361.58,0,0,0,37.66-84.67,373.38,373.38,0,0,0,15.28-107.48q0-78.87-29.87-147.59t-81.14-120q-51.27-51.27-120-81.14T509.54,109.53q-77.71,0-147,29.87T241.92,220.54q-51.27,51.27-81.14,120T130.91,488.16a372,372,0,0,0,14.82,105.26,366.13,366.13,0,0,0,15.05,41.79q29.85,69.35,81.14,120.62t120.57,81.09q69.28,29.93,147.05,29.87a405,405,0,0,0,60.29-4.48A335.45,335.45,0,0,0,629,847.66Q648.76,859,667.6,869.15a1040.26,1040.26,0,0,0,97.73,46.69q62,25.36,101.44,25.34a77.1,77.1,0,0,0,20.86-3.45c7.88-2.31,16-5,24.2-8.07ZM540,815.53a264.16,264.16,0,0,1-30.41,1.67q-87.92,0-159.47-40.57T233.49,668.48h3.35q19.17,0,47.32,3.35t62,13a488.17,488.17,0,0,1,71.53,27.06q37.74,17.48,77.2,45.65,18,13.53,37.76,27.6t37.76,26.47C559.85,813.08,549.75,814.39,540,815.53ZM206.43,359.7a333.58,333.58,0,0,1,70.44-104.21Q321.33,211,381.08,185.05t128.46-25.93q68.74,0,128.46,25.93t104.26,70.44Q786.72,300,812.7,359.7t25.88,128.46a331.73,331.73,0,0,1-3.72,50.27,312.29,312.29,0,0,1-10.79,46.78,309,309,0,0,1-16.72,41.84,317.2,317.2,0,0,1-20,35.22Q736.06,740.6,644.75,787.92a7.59,7.59,0,0,1-5.62,2.27l-4.48,2.22q-28.23-16.86-54.67-34.9T525.31,719.2Q482.49,688.75,440.23,669t-80.55-30.41a562.45,562.45,0,0,0-69.85-15.23c-21.08-3-38.71-4.49-53-4.49H219.39a40.27,40.27,0,0,0-4.71.23,50.54,50.54,0,0,0-7.12.9q-7.62-18.42-13.1-36.53c-2.86-9.29-5.21-18.54-7.21-27.7-1.31-6.21-2.45-12.6-3.4-19.08a340.35,340.35,0,0,1-3.35-48.55Q180.5,419.49,206.43,359.7Z"/><circle class="cls-3" cx="503.73" cy="285.41" r="45.41"/></g></g></svg>