<svg xmlns="http://www.w3.org/2000/svg" viewBox="0 0 722.98 722.98"><defs><style>.cls-1{fill:#202020;}.cls-2{fill:#5e2bff;}.cls-3{fill:#a30015;}.cls-4{fill:#f7f7ff;}</style></defs><title>Fichier 1</title><g id="Calque_2" data-name="Calque 2"><g id="Calque_1-2" data-name="Calque 1"><rect class="cls-1" width="722.98" height="722.98" rx="123.1"/><path class="cls-2" d="M623.19,361.66a259.27,259.27,0,0,1-4.44,47.93,251.91,251.91,0,0,1-6.67,27.25q-1.71,5.64-3.67,11.15c-.16.48-.34,1-.51,1.45a258.75,258.75,0,0,1-486.75-.6c-.19-.54-.4-1.09-.58-1.65-1.2-3.42-2.34-6.86-3.39-10.35a252.06,252.06,0,0,1-6.81-27.92A259.3,259.3,0,0,1,106,361.66q0-4.8.19-9.57c5-138.31,119-248.89,258.5-248.89,139.94,0,253.92,111.22,258.32,250.1v0Q623.18,357.48,623.19,361.66Z"/><path class="cls-1" d="M579.41,451.08a232.75,232.75,0,0,1-429.76-.56c.16-.29.36-.61.52-.91,1.17-2.07,2.37-4.12,3.6-6.13a245.8,245.8,0,0,1,424.54,5.68l.29.49C578.89,450.13,579.15,450.59,579.41,451.08Z"/><path class="cls-3" d="M623.83,424.06A294.8,294.8,0,0,0,598,385.68,298.45,298.45,0,0,0,380.19,272.89q-7.87-.43-15.82-.43-10.74,0-21.37.77A298.49,298.49,0,0,0,131.69,384.45,293.73,293.73,0,0,0,105,424c-.19.35-.39.68-.58,1A261.34,261.34,0,0,0,115.17,455a274,274,0,0,0,58.12,86.4q36.72,36.72,86.37,58.09A262.8,262.8,0,0,0,365,620.89a289,289,0,0,0,43.18-3.22,239.54,239.54,0,0,0,42.37-10.49q14.18,8.15,27.67,15.4A280.44,280.44,0,0,0,517,602q-12.28-6.24-25.27-13.35,68.63-38.76,106.57-101.3a259.29,259.29,0,0,0,27-60.65C624.81,425.78,624.32,424.9,623.83,424.06Zm-44.29,81.37a258.77,258.77,0,0,1-458.4-56.6q3.08-6.09,6.4-12C170.87,360.07,250.44,306.46,343,299.26q10.58-.83,21.37-.83,8,0,15.82.46a271.64,271.64,0,0,1,221,138q3.51,6.18,6.69,12.57A257.86,257.86,0,0,1,579.54,505.43Z"/><path class="cls-4" d="M601.2,436.85a271.82,271.82,0,0,0-473.66,0q-3.32,5.89-6.4,12a258.68,258.68,0,0,0,486.75.58Q604.72,443,601.2,436.85ZM558,491a232.73,232.73,0,0,1-408.3-40.43c.16-.29.36-.61.52-.91,1.17-2.07,2.37-4.12,3.6-6.13a245.8,245.8,0,0,1,424.54,5.68l.29.49c.29.48.55.94.81,1.43A231.39,231.39,0,0,1,558,491Z"/><path class="cls-1" d="M636.11,447.83l-3.77,10.42a285.46,285.46,0,0,1-99.52,132.87c-5.19,3.8-10.45,7.43-15.84,10.84q-12.28-6.23-25.27-13.34,68.63-38.77,106.57-101.31a259.11,259.11,0,0,0,27-60.65c2.08,3.7,4.06,7.47,5.91,11.23Z"/><path class="cls-1" d="M478.21,622.58a285,285,0,0,1-381.52-165l-3.76-10.49,5-9.93c2.14-4.32,4.25-8.28,6.43-12.11A261.87,261.87,0,0,0,115.17,455a274.16,274.16,0,0,0,58.12,86.41q36.72,36.72,86.37,58.08A262.8,262.8,0,0,0,365,620.89a290.32,290.32,0,0,0,43.18-3.21,240.42,240.42,0,0,0,42.37-10.49Q464.72,615.32,478.21,622.58Z"/><path class="cls-4" d="M364.37,272.46q-10.74,0-21.37.77v331h37.19V272.89Q372.32,272.46,364.37,272.46Z"/><path class="cls-4" d="M637.83,632.19c-4.32,2.14-7.83,3.77-10.49,4.84a19,19,0,0,1-6.46,1.62q-19.39,0-53.28-13.51Q544.21,615.84,517,602q-12.28-6.23-25.27-13.34,68.63-38.77,106.57-101.31a259.11,259.11,0,0,0,27-60.65,267.28,267.28,0,0,0,10.94-77q0-56.49-21.39-105.72A273.47,273.47,0,0,0,470.74,99.86Q421.5,78.47,365,78.46a263.32,263.32,0,0,0-105.33,21.4A272.34,272.34,0,0,0,115.17,244q-21.39,49.24-21.4,105.72a266.41,266.41,0,0,0,10.62,75.4A261.87,261.87,0,0,0,115.17,455a274.16,274.16,0,0,0,58.12,86.41q36.72,36.72,86.37,58.08A262.8,262.8,0,0,0,365,620.89a290.32,290.32,0,0,0,43.18-3.21,240.42,240.42,0,0,0,42.37-10.49q14.18,8.13,27.67,15.39a743.29,743.29,0,0,0,70,33.44q44.41,18.16,72.67,18.15a55.38,55.38,0,0,0,14.93-2.46c5.65-1.66,11.43-3.61,17.34-5.78Zm-251.06-48a189.13,189.13,0,0,1-21.78,1.2q-63,0-114.23-29.06a242.5,242.5,0,0,1-83.51-77.47h2.4A293.12,293.12,0,0,1,248,490.53a349.89,349.89,0,0,1,51.23,19.38,346.12,346.12,0,0,1,55.3,32.7q12.9,9.69,27.05,19.77t27,19C401,582.41,393.79,583.36,386.77,584.17ZM147.86,257.66A237.32,237.32,0,0,1,273,132.55Q315.74,114,365,114t92,18.57A237.24,237.24,0,0,1,582.14,257.66q18.55,42.81,18.54,92a239,239,0,0,1-2.66,36,217.27,217.27,0,0,1-19.71,63.48A228.36,228.36,0,0,1,564,474.39q-36.72,56.1-102.12,90a5.42,5.42,0,0,1-4,1.63l-3.22,1.59q-20.21-12.08-39.16-25t-39.15-27.44a389,389,0,0,0-61-35.94,381.83,381.83,0,0,0-57.7-21.79,404.87,404.87,0,0,0-50-10.91c-15.1-2.14-27.73-3.21-38-3.21h-12.5a28.78,28.78,0,0,0-3.38.16,35.92,35.92,0,0,0-5.09.65c-3.64-8.8-6.79-17.54-9.39-26.17-2-6.66-3.73-13.28-5.16-19.84-.94-4.45-1.75-9-2.44-13.67a243.87,243.87,0,0,1-2.4-34.78Q129.29,300.49,147.86,257.66Z"/><circle class="cls-3" cx="360.83" cy="204.44" r="32.53"/></g></g></svg>